<?xml version="1.0" encoding="utf-8"?>
<!-- Generator: Adobe Illustrator 19.2.1, SVG Export Plug-In . SVG Version: 6.00 Build 0)  -->
<svg version="1.1" id="Capa_1" xmlns="http://www.w3.org/2000/svg" xmlns:xlink="http://www.w3.org/1999/xlink" x="0px" y="0px"
	 viewBox="0 0 512 512" style="enable-background:new 0 0 512 512;" xml:space="preserve">
<style type="text/css">
	.st0{fill:#259BE4;}
	.st1{fill:none;stroke:#259BE4;stroke-width:20;stroke-miterlimit:10;}
</style>
<g>
	<path class="st0" d="M354.3,472.3H165.7c-29.5,0-53.3-23.9-53.3-53.3V93.7c0-29.5,23.9-53.3,53.3-53.3h188.7
		c29.5,0,53.3,23.9,53.3,53.3V419C407.7,448.5,383.8,472.3,354.3,472.3z M165.7,64.3c-16.2,0-29.3,13.1-29.3,29.3V419
		c0,16.2,13.1,29.3,29.3,29.3h188.7c16.2,0,29.3-13.1,29.3-29.3V93.7c0-16.2-13.1-29.3-29.3-29.3H165.7z"/>
</g>
<g>
	<path class="st0" d="M336.4,360.3H183.6c-14.3,0-25.9-11.6-25.9-25.9V109.8c0-14.3,11.6-25.9,25.9-25.9h152.8
		c14.3,0,25.9,11.6,25.9,25.9v224.7C362.3,348.7,350.7,360.3,336.4,360.3z M193.4,336.3h133.2c6.5,0,11.7-5.3,11.7-11.7v-205
		c0-6.5-5.3-11.7-11.7-11.7H193.4c-6.5,0-11.7,5.3-11.7,11.7v205C181.7,331.1,186.9,336.3,193.4,336.3z"/>
</g>
<circle class="st1" cx="258.7" cy="405.7" r="18.7"/>
</svg>
