<?xml version="1.0" encoding="utf-8"?>
<!-- Generator: Adobe Illustrator 19.2.1, SVG Export Plug-In . SVG Version: 6.00 Build 0)  -->
<svg version="1.1" id="Capa_1" xmlns="http://www.w3.org/2000/svg" xmlns:xlink="http://www.w3.org/1999/xlink" x="0px" y="0px"
	 viewBox="0 0 512 512" style="enable-background:new 0 0 512 512;" xml:space="preserve">
<style type="text/css">
	.st0{fill:#259BE4;}
	.st1{fill:none;stroke:#259BE4;stroke-width:24;stroke-linecap:round;stroke-linejoin:round;stroke-miterlimit:10;}
</style>
<path class="st0" d="M449.3,405.3H59.7c-24.3,0-44-19.7-44-44V121c0-24.3,19.7-44,44-44h389.7c24.3,0,44,19.7,44,44v240.4
	C493.3,385.6,473.6,405.3,449.3,405.3z M62.9,104.5c-10.1,0-18.4,8.3-18.4,18.4v236.4c0,10.1,8.3,18.4,18.4,18.4h383.3
	c10.1,0,18.4-8.3,18.4-18.4V122.9c0-10.1-8.3-18.4-18.4-18.4H62.9z"/>
<circle class="st0" cx="87.7" cy="159.5" r="18.4"/>
<circle class="st0" cx="142.5" cy="159.5" r="18.4"/>
<circle class="st0" cx="197.2" cy="159.5" r="18.4"/>
<line class="st1" x1="76.7" y1="236.3" x2="428.4" y2="236.3"/>
<line class="st1" x1="76.7" y1="303.5" x2="248" y2="303.5"/>
</svg>
